<svg width="30" height="30" viewBox="0 0 30 30" fill="none" xmlns="http://www.w3.org/2000/svg">
<rect width="30" height="30" rx="8" fill="#538AFF"/>
<path d="M10.154 9.45806H10.1529C10.0878 9.4579 10.0234 9.47101 9.96333 9.49661C9.90325 9.52222 9.84869 9.55982 9.80282 9.60724C9.75604 9.65498 9.71895 9.71181 9.6937 9.77443C9.66846 9.83705 9.65556 9.9042 9.65576 9.97198L9.65576 17.6782C9.65576 17.9608 9.88015 18.1913 10.156 18.192C11.319 18.1949 13.2675 18.4442 14.6117 19.891V11.8262C14.6117 11.7304 14.5879 11.6405 14.543 11.566C13.4397 9.73852 11.3197 9.46086 10.154 9.45806ZM20.3433 17.6782V9.97194C20.3433 9.83402 20.291 9.70448 20.1962 9.60719C20.1503 9.55979 20.0958 9.52221 20.0357 9.49661C19.9756 9.47101 19.9112 9.45789 19.8462 9.45801H19.845C18.6794 9.46086 16.5593 9.73852 15.456 11.566C15.4112 11.6405 15.3874 11.7304 15.3874 11.8262V19.891C16.7316 18.4441 18.6801 18.1948 19.843 18.192C20.1189 18.1912 20.3433 17.9608 20.3433 17.6782Z" fill="white"/>
<path d="M21.6152 11.2412H21.2454V17.6602C21.2454 18.379 20.6621 18.9651 19.9451 18.9669C18.9384 18.9693 17.2784 19.167 16.1027 20.2842C18.136 19.7844 20.2794 20.1093 21.501 20.3888C21.5758 20.4062 21.6536 20.4063 21.7285 20.3892C21.8034 20.372 21.8734 20.3381 21.9334 20.2899C21.9933 20.2421 22.0417 20.1812 22.0749 20.112C22.108 20.0427 22.1252 19.9668 22.125 19.89V11.7531C22.125 11.4709 21.8963 11.2412 21.6152 11.2412ZM8.75457 17.6602V11.2412H8.38484C8.10377 11.2412 7.875 11.4709 7.875 11.7531L7.875 19.8898C7.875 20.0464 7.94486 20.1922 8.06663 20.2897C8.12658 20.3379 8.19662 20.3719 8.2715 20.389C8.34638 20.4061 8.42415 20.406 8.49898 20.3887C9.72055 20.1091 11.8641 19.7842 13.8973 20.2841C12.7216 19.1669 11.0616 18.9693 10.0549 18.9669C9.33791 18.9651 8.75457 18.379 8.75457 17.6602Z" fill="white"/>
</svg>
