<svg width="24" height="24" viewBox="0 0 24 24" fill="none" xmlns="http://www.w3.org/2000/svg">
<path d="M8.40078 4.79999C8.40078 4.35817 8.04261 4 7.60078 4C7.15895 4 6.80078 4.35817 6.80078 4.79999V5.59998C6.80078 6.0418 7.15895 6.39997 7.60078 6.39997C8.04261 6.39997 8.40078 6.0418 8.40078 5.59998V4.79999Z" fill="white" fill-opacity="0.5"/>
<path d="M17.2001 4.79999C17.2001 4.35817 16.8419 4 16.4001 4C15.9583 4 15.6001 4.35817 15.6001 4.79999V5.59998C15.6001 6.0418 15.9583 6.39997 16.4001 6.39997C16.8419 6.39997 17.2001 6.0418 17.2001 5.59998V4.79999Z" fill="white" fill-opacity="0.5"/>
<path d="M4 9.99965V19.1995C4 19.6239 4.16857 20.0308 4.46863 20.3309C4.76869 20.6309 5.17565 20.7995 5.6 20.7995H18.4C18.8243 20.7995 19.2313 20.6309 19.5314 20.3309C19.8314 20.0308 20 19.6239 20 19.1995V9.99965H4ZM8.8 17.9995C8.8 18.2117 8.71571 18.4152 8.56569 18.5652C8.41566 18.7153 8.21217 18.7995 8 18.7995H7.2C6.98783 18.7995 6.78434 18.7153 6.63431 18.5652C6.48429 18.4152 6.4 18.2117 6.4 17.9995V17.1996C6.4 16.9874 6.48429 16.7839 6.63431 16.6339C6.78434 16.4839 6.98783 16.3996 7.2 16.3996H8C8.21217 16.3996 8.41566 16.4839 8.56569 16.6339C8.71571 16.7839 8.8 16.9874 8.8 17.1996V17.9995ZM8.8 13.5996C8.8 13.8118 8.71571 14.0153 8.56569 14.1653C8.41566 14.3153 8.21217 14.3996 8 14.3996H7.2C6.98783 14.3996 6.78434 14.3153 6.63431 14.1653C6.48429 14.0153 6.4 13.8118 6.4 13.5996V12.7996C6.4 12.5874 6.48429 12.384 6.63431 12.2339C6.78434 12.0839 6.98783 11.9996 7.2 11.9996H8C8.21217 11.9996 8.41566 12.0839 8.56569 12.2339C8.71571 12.384 8.8 12.5874 8.8 12.7996V13.5996ZM13.2 17.9995C13.2 18.2117 13.1157 18.4152 12.9657 18.5652C12.8157 18.7153 12.6122 18.7995 12.4 18.7995H11.6C11.3878 18.7995 11.1843 18.7153 11.0343 18.5652C10.8843 18.4152 10.8 18.2117 10.8 17.9995V17.1996C10.8 16.9874 10.8843 16.7839 11.0343 16.6339C11.1843 16.4839 11.3878 16.3996 11.6 16.3996H12.4C12.6122 16.3996 12.8157 16.4839 12.9657 16.6339C13.1157 16.7839 13.2 16.9874 13.2 17.1996V17.9995ZM13.2 13.5996C13.2 13.8118 13.1157 14.0153 12.9657 14.1653C12.8157 14.3153 12.6122 14.3996 12.4 14.3996H11.6C11.3878 14.3996 11.1843 14.3153 11.0343 14.1653C10.8843 14.0153 10.8 13.8118 10.8 13.5996V12.7996C10.8 12.5874 10.8843 12.384 11.0343 12.2339C11.1843 12.0839 11.3878 11.9996 11.6 11.9996H12.4C12.6122 11.9996 12.8157 12.0839 12.9657 12.2339C13.1157 12.384 13.2 12.5874 13.2 12.7996V13.5996ZM17.6 17.9995C17.6 18.2117 17.5157 18.4152 17.3657 18.5652C17.2157 18.7153 17.0122 18.7995 16.8 18.7995H16C15.7878 18.7995 15.5843 18.7153 15.4343 18.5652C15.2843 18.4152 15.2 18.2117 15.2 17.9995V17.1996C15.2 16.9874 15.2843 16.7839 15.4343 16.6339C15.5843 16.4839 15.7878 16.3996 16 16.3996H16.8C17.0122 16.3996 17.2157 16.4839 17.3657 16.6339C17.5157 16.7839 17.6 16.9874 17.6 17.1996V17.9995ZM17.6 13.5996C17.6 13.8118 17.5157 14.0153 17.3657 14.1653C17.2157 14.3153 17.0122 14.3996 16.8 14.3996H16C15.7878 14.3996 15.5843 14.3153 15.4343 14.1653C15.2843 14.0153 15.2 13.8118 15.2 13.5996V12.7996C15.2 12.5874 15.2843 12.384 15.4343 12.2339C15.5843 12.0839 15.7878 11.9996 16 11.9996H16.8C17.0122 11.9996 17.2157 12.0839 17.3657 12.2339C17.5157 12.384 17.6 12.5874 17.6 12.7996V13.5996ZM20 9.19966V6.79969C20 6.37535 19.8314 5.96838 19.5314 5.66833C19.2313 5.36828 18.8243 5.19971 18.4 5.19971H18V5.5997C18 6.48209 17.2824 7.19968 16.4 7.19968C15.5176 7.19968 14.8 6.48209 14.8 5.5997V5.19971H9.2V5.5997C9.2 6.48209 8.4824 7.19968 7.6 7.19968C6.7176 7.19968 6 6.48209 6 5.5997V5.19971H5.6C5.17565 5.19971 4.76869 5.36828 4.46863 5.66833C4.16857 5.96838 4 6.37535 4 6.79969V9.19966H20Z" fill="white" fill-opacity="0.5"/>
</svg>
