<svg width="24" height="24" viewBox="0 0 24 24" fill="none" xmlns="http://www.w3.org/2000/svg">
<path d="M18.2825 7.61853L14.6022 3.74305C14.1542 3.28134 13.526 3.00504 12.8085 3.00504H7.51213C6.16638 2.91234 5 4.11206 5 5.49629V18.416C4.99943 18.7556 5.06404 19.092 5.19014 19.4058C5.31623 19.7196 5.50133 20.0047 5.73481 20.2448C5.96829 20.4849 6.24556 20.6752 6.5507 20.8048C6.85585 20.9344 7.18287 21.0007 7.513 21H16.487C16.8171 21.0007 17.1441 20.9344 17.4493 20.8048C17.7544 20.6752 18.0317 20.4849 18.2652 20.2448C18.4987 20.0047 18.6838 19.7196 18.8099 19.4058C18.936 19.092 19.0006 18.7556 19 18.416V9.37266C19 8.72645 18.7305 8.08024 18.2825 7.61853ZM9.30763 10.2952H12C12.3587 10.2952 12.7175 10.5724 12.7175 11.0332C12.7175 11.4949 12.4489 11.7712 12 11.7712H9.30763C9.21308 11.7724 9.11925 11.7542 9.03167 11.7175C8.94409 11.6808 8.86452 11.6265 8.79766 11.5577C8.7308 11.489 8.67799 11.4071 8.64235 11.317C8.60671 11.227 8.58895 11.1305 8.59013 11.0332C8.59013 10.5715 8.94888 10.2952 9.30763 10.2952ZM14.6924 15.4631H9.30763C8.94888 15.4631 8.59013 15.1859 8.59013 14.7251C8.59013 14.2643 8.85875 13.9871 9.30763 13.9871H14.6924C15.0511 13.9871 15.4099 14.2634 15.4099 14.7251C15.4099 15.1868 15.0511 15.4631 14.6924 15.4631Z" fill="#538AFF"/>
</svg>
