<svg width="24" height="24" viewBox="0 0 24 24" fill="none" xmlns="http://www.w3.org/2000/svg">
<path d="M18.0567 4.93701H17.5566V17.2239C17.5566 18.0402 16.8921 18.7046 16.0759 18.7046H6.979V19.1601C6.979 19.6817 7.40232 20.105 7.92388 20.105H18.0549C18.5765 20.105 18.9998 19.6817 18.9998 19.1601V5.88188C18.9998 5.36033 18.5782 4.93701 18.0567 4.93701Z" fill="white" fill-opacity="0.5"/>
<path d="M11.0086 18.1679H16.0741C16.5957 18.1679 17.019 17.7447 17.019 17.2231V3.94487C17.019 3.42332 16.5957 3 16.0741 3H9.32426V3.31258C9.32782 3.34473 9.32962 3.37866 9.32962 3.4126V6.00073C9.32962 6.73484 8.73305 7.33141 7.99894 7.33141H5.41081C5.38402 7.33141 5.35544 7.32962 5.32865 7.32784H5V17.2231C5 17.7447 5.42332 18.1679 5.94487 18.1679H11.0086ZM11.1997 14.9565H7.89713C7.65064 14.9565 7.4506 14.7564 7.4506 14.5099C7.4506 14.2634 7.65064 14.0634 7.89713 14.0634H11.2015C11.448 14.0634 11.648 14.2634 11.648 14.5099C11.648 14.7564 11.4462 14.9565 11.1997 14.9565ZM14.5041 12.6774H7.89713C7.65064 12.6774 7.4506 12.4773 7.4506 12.2308C7.4506 11.9843 7.65064 11.7843 7.89713 11.7843H14.5041C14.7506 11.7843 14.9506 11.9843 14.9506 12.2308C14.9506 12.4773 14.7506 12.6774 14.5041 12.6774ZM7.89713 9.36404H14.5041C14.7506 9.36404 14.9506 9.56409 14.9506 9.81058C14.9506 10.0571 14.7506 10.2571 14.5041 10.2571H7.89713C7.65064 10.2571 7.4506 10.0571 7.4506 9.81058C7.4506 9.56409 7.65064 9.36404 7.89713 9.36404Z" fill="white" fill-opacity="0.5"/>
<path d="M5.41099 6.79592H8.00627C8.43852 6.79235 8.7886 6.44227 8.79217 6.01002V3.41296C8.79217 3.17362 8.5957 3.01465 8.39209 3.01465C8.29385 3.01465 8.19562 3.05037 8.11345 3.13253L5.12878 6.11719C4.87872 6.36725 5.05555 6.79592 5.41099 6.79592Z" fill="white" fill-opacity="0.5"/>
</svg>
