<svg width="28" height="28" viewBox="0 0 28 28" fill="none" xmlns="http://www.w3.org/2000/svg">
<path fill-rule="evenodd" clip-rule="evenodd" d="M15.3179 3.93202L14.0002 5.24977L12.6824 3.93202C11.2832 2.57011 9.40391 1.81415 7.45138 1.82782C5.49886 1.84149 3.63029 2.6237 2.25031 4.00507C0.870319 5.38644 0.0899788 7.25578 0.0782589 9.20832C0.0665391 11.1609 0.824382 13.0394 2.18769 14.4373L12.1452 24.3948L14.0002 26.2498L15.8552 24.3948L25.8127 14.4373C27.176 13.0394 27.9338 11.1609 27.9221 9.20832C27.9104 7.25578 27.1301 5.38644 25.7501 4.00507C24.3701 2.6237 22.5015 1.84149 20.549 1.82782C18.5965 1.81415 16.7171 2.57011 15.3179 3.93202ZM14.0002 22.538L23.9577 12.5805C24.8438 11.6778 25.3377 10.4618 25.3321 9.19687C25.3266 7.93195 24.822 6.72035 23.928 5.82544C23.034 4.93054 21.8229 4.42467 20.558 4.4178C19.2931 4.41093 18.0766 4.90362 17.1729 5.78877L15.8569 7.10652L14.0002 8.95977L12.1452 7.10477L10.8274 5.78877V5.78702C9.92656 4.8873 8.70518 4.38231 7.43197 4.38313C6.15876 4.38395 4.93803 4.89052 4.03831 5.79139C3.1386 6.69227 2.63361 7.91365 2.63443 9.18686C2.63525 10.4601 3.14181 11.6808 4.04269 12.5805L14.0002 22.5398V22.538Z" fill="#FF3737"/>
</svg>
