<svg width="30" height="30" viewBox="0 0 30 30" fill="none" xmlns="http://www.w3.org/2000/svg">
<path d="M10.9176 17.6191C10.7164 17.6191 10.5807 17.6388 10.5107 17.6585V18.947C10.5939 18.9666 10.6978 18.9721 10.8411 18.9721C11.365 18.9721 11.6876 18.7074 11.6876 18.2612C11.6876 17.8598 11.4098 17.6191 10.9176 17.6191ZM14.7315 17.6323C14.5128 17.6323 14.3706 17.652 14.2864 17.6716V20.5263C14.3706 20.546 14.5062 20.546 14.6287 20.546C15.5223 20.5526 16.1042 20.0604 16.1042 19.0191C16.1107 18.1113 15.5803 17.6323 14.7315 17.6323Z" fill="white"/>
<path d="M17.1875 3.75H8.4375C7.85734 3.75 7.30094 3.98047 6.8907 4.3907C6.48047 4.80094 6.25 5.35734 6.25 5.9375V23.4375C6.25 24.0177 6.48047 24.5741 6.8907 24.9843C7.30094 25.3945 7.85734 25.625 8.4375 25.625H21.5625C22.1427 25.625 22.6991 25.3945 23.1093 24.9843C23.5195 24.5741 23.75 24.0177 23.75 23.4375V10.3125L17.1875 3.75ZM12.2634 19.2703C11.9255 19.5875 11.4267 19.7297 10.8459 19.7297C10.7333 19.7318 10.6207 19.7252 10.5091 19.71V21.2697H9.53125V16.9647C9.9725 16.8986 10.4184 16.8686 10.8645 16.875C11.4737 16.875 11.9069 16.9909 12.1989 17.2239C12.4767 17.4448 12.6648 17.8069 12.6648 18.2334C12.6637 18.6622 12.5216 19.0242 12.2634 19.2703ZM16.4273 20.7523C15.968 21.1341 15.2691 21.3156 14.4148 21.3156C13.903 21.3156 13.5409 21.2828 13.2948 21.25V16.9658C13.7363 16.9016 14.182 16.8712 14.6281 16.875C15.4561 16.875 15.9942 17.0237 16.4142 17.3409C16.8681 17.6778 17.1525 18.2148 17.1525 18.9859C17.1525 19.8205 16.8473 20.3969 16.4273 20.7523ZM20.4688 17.7172H18.7931V18.7136H20.3594V19.5164H18.7931V21.2708H17.8022V16.9078H20.4688V17.7172ZM17.1875 11.4062H16.0938V5.9375L21.5625 11.4062H17.1875Z" fill="white"/>
</svg>
