<svg width="24" height="24" viewBox="0 0 24 24" fill="none" xmlns="http://www.w3.org/2000/svg">
<path d="M19.6038 5.14042L12.1599 3.02225C12.0556 2.99258 11.9445 2.99258 11.8403 3.02225L4.3962 5.14042C4.28168 5.17301 4.18129 5.23975 4.10992 5.33073C4.03855 5.42172 4 5.5321 4 5.64551V13.4121C4 14.4223 4.43119 15.4564 5.28152 16.4856C5.93095 17.2717 6.82946 18.0611 7.952 18.8318C9.8378 20.1266 11.6948 20.9208 11.7729 20.954C11.8444 20.9843 11.9218 21 12.0001 21C12.0784 21 12.1558 20.9843 12.2273 20.954C12.3053 20.9208 14.1623 20.1266 16.0481 18.8318C17.1706 18.0611 18.0691 17.2717 18.7186 16.4856C19.5689 15.4564 20 14.4223 20 13.4121V5.64551C20 5.5321 19.9615 5.42172 19.8901 5.33073C19.8187 5.23975 19.7183 5.17301 19.6038 5.14042Z" fill="white" fill-opacity="0.5"/>
</svg>
