<svg width="24" height="24" viewBox="0 0 24 24" fill="none" xmlns="http://www.w3.org/2000/svg">
<path d="M19.7245 14.4852C19.8575 14.3874 19.9623 14.2562 20.0284 14.105C20.0945 13.9537 20.1196 13.7877 20.101 13.6237C20.0825 13.4597 20.021 13.3034 19.9228 13.1707C19.8246 13.0381 19.6931 12.9336 19.5416 12.868V11.5781L18.7875 11.8986V12.868C18.636 12.9336 18.5044 13.038 18.4061 13.1708C18.3078 13.3035 18.2463 13.4598 18.2278 13.6238C18.2092 13.7879 18.2343 13.954 18.3005 14.1053C18.3666 14.2566 18.4716 14.3878 18.6046 14.4856C18.4863 14.5726 18.3901 14.6861 18.3236 14.8171C18.2571 14.9481 18.2223 15.0928 18.2219 15.2397V16.1819C18.2219 16.2819 18.2617 16.3778 18.3324 16.4485C18.4031 16.5192 18.499 16.559 18.599 16.559H19.7302C19.8302 16.559 19.9261 16.5192 19.9968 16.4485C20.0675 16.3778 20.1072 16.2819 20.1072 16.1819V15.2393C20.1068 15.0924 20.072 14.9477 20.0056 14.8167C19.9391 14.6857 19.8428 14.5722 19.7245 14.4852ZM17.6564 12.3775V15.1676C17.6584 15.492 17.5761 15.8114 17.4174 16.0943C17.2588 16.3772 17.0293 16.614 16.7514 16.7814C15.3098 17.6236 13.6702 18.0674 12.0006 18.0674C10.331 18.0674 8.69135 17.6236 7.24969 16.7814C6.97185 16.614 6.74234 16.3772 6.58368 16.0943C6.42503 15.8114 6.3427 15.492 6.34476 15.1676V12.3775L10.9712 14.3344C11.2971 14.4713 11.6471 14.5418 12.0006 14.5418C12.3541 14.5418 12.704 14.4713 13.0299 14.3344L17.6564 12.3775Z" fill="#538AFF"/>
<path d="M20.3095 8.35325L12.7353 5.14832C12.5025 5.05043 12.2525 5 12 5C11.7475 5 11.4975 5.05043 11.2647 5.14832L3.6905 8.35325C3.48578 8.43984 3.3111 8.58484 3.1883 8.77012C3.06549 8.9554 3 9.17276 3 9.39504C3 9.61732 3.06549 9.83468 3.1883 10.02C3.3111 10.2052 3.48578 10.3502 3.6905 10.4368L11.2647 13.6418C11.4975 13.7399 11.7475 13.7904 12 13.7904C12.2525 13.7904 12.5025 13.7399 12.7353 13.6418L20.3095 10.4368C20.5142 10.3502 20.6889 10.2052 20.8117 10.02C20.9345 9.83468 21 9.61732 21 9.39504C21 9.17276 20.9345 8.9554 20.8117 8.77012C20.6889 8.58484 20.5142 8.43984 20.3095 8.35325Z" fill="#538AFF"/>
</svg>
